<?xml version="1.0" encoding="UTF-8" standalone="no"?>
<!-- Created with Inkscape (http://www.inkscape.org/) -->

<svg
   width="135.46666mm"
   height="135.46664mm"
   viewBox="0 0 135.46666 135.46664"
   version="1.1"
   id="svg5"
   xml:space="preserve"
   sodipodi:docname="test.svg"
   xmlns:inkscape="http://www.inkscape.org/namespaces/inkscape"
   xmlns:sodipodi="http://sodipodi.sourceforge.net/DTD/sodipodi-0.dtd"
   xmlns="http://www.w3.org/2000/svg"
   xmlns:svg="http://www.w3.org/2000/svg"><sodipodi:namedview
     id="namedview7"
     pagecolor="#ffffff"
     bordercolor="#000000"
     borderopacity="0.25"
     inkscape:showpageshadow="2"
     inkscape:pageopacity="0.0"
     inkscape:pagecheckerboard="0"
     inkscape:deskcolor="#d1d1d1"
     inkscape:document-units="mm"
     showgrid="false"
     inkscape:zoom="0.74564394"
     inkscape:cx="318.51664"
     inkscape:cy="561.9304"
     inkscape:window-width="1920"
     inkscape:window-height="1017"
     inkscape:window-x="1912"
     inkscape:window-y="-8"
     inkscape:window-maximized="1"
     inkscape:current-layer="layer1" /><defs
     id="defs2" /><g
     inkscape:label="Livello 1"
     inkscape:groupmode="layer"
     id="layer1"
     transform="translate(-28.782799,-39.073123)"><path
       style="fill:#000000;stroke-width:0.264583"
       d="m 91.039637,157.34379 c -12.34147,-1.30507 -29.50431,-9.25139 -32.185606,-14.9018 -0.423791,-0.89307 -0.718743,-27.69804 -0.304781,-27.69804 0.07322,0 7.639224,3.75343 16.813352,8.34095 23.521261,11.7618 18.785797,11.7618 42.307058,0 9.17413,-4.58752 16.74014,-8.34095 16.81335,-8.34095 0.40879,0 0.1197,26.80351 -0.2986,27.68501 -3.89591,8.21002 -27.94177,16.5225 -43.144773,14.91483 z m 57.943323,-17.14714 c -6.58984,-2.35466 -7.95668,-11.07354 -2.31542,-14.76984 0.64859,-0.42497 0.64859,-0.42497 0.64859,-13.49031 0,-13.065352 0,-13.065352 -24.87583,-0.63103 -20.29336,10.14374 -25.06953,12.43432 -25.927304,12.43432 -1.694879,0 -61.567628,-30.014357 -62.616878,-31.389994 -1.070591,-1.403617 -1.070591,-3.549732 0,-4.953349 1.050928,-1.377839 60.922288,-31.389991 62.620013,-31.389991 1.697725,0 61.569089,30.012152 62.620009,31.389991 1.65485,2.16961 0.83654,4.925062 -1.92557,6.483897 -2.24846,1.268958 -2.24817,30.111926 2.7e-4,32.238466 6.46155,6.11107 0.072,17.04354 -8.22795,14.07784 z"
       id="path302" /></g></svg>
